<mxfile host="app.diagrams.net" modified="2020-09-21T09:09:27.633Z" agent="5.0 (Windows NT 10.0; WOW64) AppleWebKit/537.36 (KHTML, like Gecko) Chrome/83.0.4103.97 Safari/537.36" etag="1Fn-XYTaEX4cB9hdsqJZ" version="13.7.3" type="github">
  <diagram id="ozvp_xt9MLTs1pXutRkt" name="Page-1">
    <mxGraphModel dx="1422" dy="1931" grid="1" gridSize="10" guides="1" tooltips="1" connect="1" arrows="1" fold="1" page="1" pageScale="1" pageWidth="827" pageHeight="1169" math="0" shadow="0">
      <root>
        <mxCell id="0" />
        <mxCell id="1" parent="0" />
        <mxCell id="SMZh0m5lQfiZK0LmAoFr-19" style="edgeStyle=orthogonalEdgeStyle;rounded=0;orthogonalLoop=1;jettySize=auto;html=1;exitX=0.5;exitY=1;exitDx=0;exitDy=0;entryX=0.5;entryY=0;entryDx=0;entryDy=0;" parent="1" source="SMZh0m5lQfiZK0LmAoFr-2" target="SMZh0m5lQfiZK0LmAoFr-15" edge="1">
          <mxGeometry relative="1" as="geometry" />
        </mxCell>
        <mxCell id="SMZh0m5lQfiZK0LmAoFr-2" value="&lt;span style=&quot;font-size: 15px&quot;&gt;项目1&lt;/span&gt;" style="rounded=1;whiteSpace=wrap;html=1;fillColor=#dae8fc;strokeColor=#6c8ebf;" parent="1" vertex="1">
          <mxGeometry x="210" y="260" width="90" height="60" as="geometry" />
        </mxCell>
        <mxCell id="SMZh0m5lQfiZK0LmAoFr-21" style="edgeStyle=orthogonalEdgeStyle;rounded=0;orthogonalLoop=1;jettySize=auto;html=1;exitX=0.5;exitY=1;exitDx=0;exitDy=0;entryX=0.5;entryY=0;entryDx=0;entryDy=0;" parent="1" source="SMZh0m5lQfiZK0LmAoFr-3" target="SMZh0m5lQfiZK0LmAoFr-17" edge="1">
          <mxGeometry relative="1" as="geometry" />
        </mxCell>
        <mxCell id="SMZh0m5lQfiZK0LmAoFr-3" value="&lt;span style=&quot;font-size: 15px&quot;&gt;项目3&lt;/span&gt;" style="rounded=1;whiteSpace=wrap;html=1;fillColor=#d5e8d4;strokeColor=#82b366;" parent="1" vertex="1">
          <mxGeometry x="470" y="260" width="90" height="60" as="geometry" />
        </mxCell>
        <mxCell id="SMZh0m5lQfiZK0LmAoFr-8" style="edgeStyle=orthogonalEdgeStyle;rounded=0;orthogonalLoop=1;jettySize=auto;html=1;exitX=0.25;exitY=1;exitDx=0;exitDy=0;" parent="1" source="SMZh0m5lQfiZK0LmAoFr-4" target="SMZh0m5lQfiZK0LmAoFr-2" edge="1">
          <mxGeometry relative="1" as="geometry" />
        </mxCell>
        <mxCell id="SMZh0m5lQfiZK0LmAoFr-9" style="edgeStyle=orthogonalEdgeStyle;rounded=0;orthogonalLoop=1;jettySize=auto;html=1;exitX=0.5;exitY=1;exitDx=0;exitDy=0;" parent="1" source="SMZh0m5lQfiZK0LmAoFr-4" target="SMZh0m5lQfiZK0LmAoFr-7" edge="1">
          <mxGeometry relative="1" as="geometry" />
        </mxCell>
        <mxCell id="SMZh0m5lQfiZK0LmAoFr-10" style="edgeStyle=orthogonalEdgeStyle;rounded=0;orthogonalLoop=1;jettySize=auto;html=1;exitX=0.75;exitY=1;exitDx=0;exitDy=0;entryX=0.411;entryY=0.017;entryDx=0;entryDy=0;entryPerimeter=0;" parent="1" source="SMZh0m5lQfiZK0LmAoFr-4" target="SMZh0m5lQfiZK0LmAoFr-3" edge="1">
          <mxGeometry relative="1" as="geometry" />
        </mxCell>
        <mxCell id="SMZh0m5lQfiZK0LmAoFr-4" value="S2" style="icon;html=1;image=img/clipart/Gear_128x128.png" parent="1" vertex="1">
          <mxGeometry x="355" y="120" width="60" height="60" as="geometry" />
        </mxCell>
        <mxCell id="SMZh0m5lQfiZK0LmAoFr-20" style="edgeStyle=orthogonalEdgeStyle;rounded=0;orthogonalLoop=1;jettySize=auto;html=1;exitX=0.5;exitY=1;exitDx=0;exitDy=0;entryX=0.5;entryY=0;entryDx=0;entryDy=0;" parent="1" source="SMZh0m5lQfiZK0LmAoFr-7" target="SMZh0m5lQfiZK0LmAoFr-16" edge="1">
          <mxGeometry relative="1" as="geometry" />
        </mxCell>
        <mxCell id="SMZh0m5lQfiZK0LmAoFr-7" value="&lt;span style=&quot;font-size: 15px&quot;&gt;项目2&lt;/span&gt;" style="rounded=1;whiteSpace=wrap;html=1;fillColor=#e1d5e7;strokeColor=#9673a6;" parent="1" vertex="1">
          <mxGeometry x="340" y="260" width="90" height="60" as="geometry" />
        </mxCell>
        <mxCell id="SMZh0m5lQfiZK0LmAoFr-15" value="&lt;font style=&quot;font-size: 15px&quot;&gt;dist1&lt;/font&gt;" style="ellipse;whiteSpace=wrap;html=1;aspect=fixed;fillColor=#f8cecc;strokeColor=#b85450;" parent="1" vertex="1">
          <mxGeometry x="220" y="370" width="70" height="70" as="geometry" />
        </mxCell>
        <mxCell id="SMZh0m5lQfiZK0LmAoFr-16" value="&lt;font style=&quot;font-size: 15px&quot;&gt;dist2&lt;/font&gt;" style="ellipse;whiteSpace=wrap;html=1;aspect=fixed;fillColor=#f8cecc;strokeColor=#b85450;" parent="1" vertex="1">
          <mxGeometry x="350" y="370" width="70" height="70" as="geometry" />
        </mxCell>
        <mxCell id="SMZh0m5lQfiZK0LmAoFr-17" value="&lt;font style=&quot;font-size: 15px&quot;&gt;dist3&lt;/font&gt;" style="ellipse;whiteSpace=wrap;html=1;aspect=fixed;fillColor=#f8cecc;strokeColor=#b85450;" parent="1" vertex="1">
          <mxGeometry x="480" y="370" width="70" height="70" as="geometry" />
        </mxCell>
        <mxCell id="SMZh0m5lQfiZK0LmAoFr-28" style="edgeStyle=orthogonalEdgeStyle;rounded=0;orthogonalLoop=1;jettySize=auto;html=1;exitX=0.25;exitY=1;exitDx=0;exitDy=0;entryX=0;entryY=0.5;entryDx=0;entryDy=0;" parent="1" source="LYyuxKMacIJ7PNofsc4J-1" target="SMZh0m5lQfiZK0LmAoFr-4" edge="1">
          <mxGeometry relative="1" as="geometry">
            <mxPoint x="180" y="150" as="sourcePoint" />
          </mxGeometry>
        </mxCell>
        <mxCell id="SMZh0m5lQfiZK0LmAoFr-30" value="" style="group;fillColor=#ffe6cc;strokeColor=#d79b00;" parent="1" vertex="1" connectable="0">
          <mxGeometry x="600" y="75" width="120" height="150" as="geometry" />
        </mxCell>
        <mxCell id="SMZh0m5lQfiZK0LmAoFr-29" value="" style="rounded=0;whiteSpace=wrap;html=1;fillColor=#ffe6cc;strokeColor=#d79b00;" parent="SMZh0m5lQfiZK0LmAoFr-30" vertex="1">
          <mxGeometry width="120" height="150" as="geometry" />
        </mxCell>
        <mxCell id="SMZh0m5lQfiZK0LmAoFr-23" value="&lt;font style=&quot;font-size: 15px&quot;&gt;config&lt;/font&gt;" style="rounded=0;whiteSpace=wrap;html=1;fillColor=#f5f5f5;strokeColor=#666666;fontColor=#333333;" parent="SMZh0m5lQfiZK0LmAoFr-30" vertex="1">
          <mxGeometry x="25" y="20" width="70" height="30" as="geometry" />
        </mxCell>
        <mxCell id="SMZh0m5lQfiZK0LmAoFr-24" value="&lt;font style=&quot;font-size: 15px&quot;&gt;routes&lt;/font&gt;" style="rounded=0;whiteSpace=wrap;html=1;fillColor=#dae8fc;strokeColor=#6c8ebf;" parent="SMZh0m5lQfiZK0LmAoFr-30" vertex="1">
          <mxGeometry x="25" y="60" width="70" height="30" as="geometry" />
        </mxCell>
        <mxCell id="SMZh0m5lQfiZK0LmAoFr-25" value="&lt;font style=&quot;font-size: 15px&quot;&gt;views&lt;/font&gt;" style="rounded=0;whiteSpace=wrap;html=1;fillColor=#f8cecc;strokeColor=#b85450;" parent="SMZh0m5lQfiZK0LmAoFr-30" vertex="1">
          <mxGeometry x="25" y="100" width="70" height="30" as="geometry" />
        </mxCell>
        <mxCell id="SMZh0m5lQfiZK0LmAoFr-31" value="" style="endArrow=classic;html=1;entryX=0;entryY=0.5;entryDx=0;entryDy=0;exitX=1;exitY=0.5;exitDx=0;exitDy=0;" parent="1" source="SMZh0m5lQfiZK0LmAoFr-4" target="SMZh0m5lQfiZK0LmAoFr-29" edge="1">
          <mxGeometry width="50" height="50" relative="1" as="geometry">
            <mxPoint x="510" y="180" as="sourcePoint" />
            <mxPoint x="560" y="130" as="targetPoint" />
          </mxGeometry>
        </mxCell>
        <mxCell id="SMZh0m5lQfiZK0LmAoFr-32" value="&lt;font style=&quot;font-size: 15px&quot;&gt;框架内提供&lt;/font&gt;" style="text;html=1;strokeColor=none;fillColor=none;align=center;verticalAlign=middle;whiteSpace=wrap;rounded=0;" parent="1" vertex="1">
          <mxGeometry x="245" y="120" width="80" height="20" as="geometry" />
        </mxCell>
        <mxCell id="SMZh0m5lQfiZK0LmAoFr-33" value="&lt;font style=&quot;font-size: 15px&quot;&gt;业务模块内容&lt;/font&gt;" style="text;html=1;strokeColor=none;fillColor=none;align=center;verticalAlign=middle;whiteSpace=wrap;rounded=0;" parent="1" vertex="1">
          <mxGeometry x="450" y="120" width="100" height="20" as="geometry" />
        </mxCell>
        <mxCell id="LYyuxKMacIJ7PNofsc4J-14" style="edgeStyle=orthogonalEdgeStyle;rounded=0;orthogonalLoop=1;jettySize=auto;html=1;exitX=0.5;exitY=1;exitDx=0;exitDy=0;" edge="1" parent="1" source="SMZh0m5lQfiZK0LmAoFr-34" target="LYyuxKMacIJ7PNofsc4J-11">
          <mxGeometry relative="1" as="geometry" />
        </mxCell>
        <mxCell id="SMZh0m5lQfiZK0LmAoFr-34" value="merge，多dist合并" style="rounded=1;whiteSpace=wrap;html=1;fillColor=#d5e8d4;strokeColor=#82b366;" parent="1" vertex="1">
          <mxGeometry x="325" y="555" width="120" height="60" as="geometry" />
        </mxCell>
        <mxCell id="SMZh0m5lQfiZK0LmAoFr-35" value="" style="endArrow=classic;html=1;exitX=0.5;exitY=1;exitDx=0;exitDy=0;entryX=0.5;entryY=0;entryDx=0;entryDy=0;" parent="1" source="SMZh0m5lQfiZK0LmAoFr-15" target="SMZh0m5lQfiZK0LmAoFr-34" edge="1">
          <mxGeometry width="50" height="50" relative="1" as="geometry">
            <mxPoint x="230" y="570" as="sourcePoint" />
            <mxPoint x="280" y="520" as="targetPoint" />
          </mxGeometry>
        </mxCell>
        <mxCell id="SMZh0m5lQfiZK0LmAoFr-36" value="" style="endArrow=classic;html=1;entryX=0.5;entryY=0;entryDx=0;entryDy=0;exitX=0.5;exitY=1;exitDx=0;exitDy=0;" parent="1" source="SMZh0m5lQfiZK0LmAoFr-16" target="SMZh0m5lQfiZK0LmAoFr-34" edge="1">
          <mxGeometry width="50" height="50" relative="1" as="geometry">
            <mxPoint x="380" y="490" as="sourcePoint" />
            <mxPoint x="430" y="440" as="targetPoint" />
          </mxGeometry>
        </mxCell>
        <mxCell id="SMZh0m5lQfiZK0LmAoFr-37" value="" style="endArrow=classic;html=1;entryX=0.5;entryY=0;entryDx=0;entryDy=0;exitX=0.5;exitY=1;exitDx=0;exitDy=0;" parent="1" source="SMZh0m5lQfiZK0LmAoFr-17" target="SMZh0m5lQfiZK0LmAoFr-34" edge="1">
          <mxGeometry width="50" height="50" relative="1" as="geometry">
            <mxPoint x="450" y="530" as="sourcePoint" />
            <mxPoint x="500" y="480" as="targetPoint" />
          </mxGeometry>
        </mxCell>
        <mxCell id="LYyuxKMacIJ7PNofsc4J-1" value="" style="rounded=0;whiteSpace=wrap;html=1;fillColor=#dae8fc;strokeColor=#6c8ebf;" vertex="1" parent="1">
          <mxGeometry x="79" y="-40" width="551" height="80" as="geometry" />
        </mxCell>
        <mxCell id="LYyuxKMacIJ7PNofsc4J-2" value="&lt;span style=&quot;font-size: 15px&quot;&gt;webpack&lt;/span&gt;" style="rounded=0;whiteSpace=wrap;html=1;fillColor=#fff2cc;strokeColor=#d6b656;" vertex="1" parent="1">
          <mxGeometry x="110" y="-20" width="80" height="40" as="geometry" />
        </mxCell>
        <mxCell id="LYyuxKMacIJ7PNofsc4J-4" value="&lt;span style=&quot;font-size: 15px&quot;&gt;router&lt;/span&gt;" style="rounded=0;whiteSpace=wrap;html=1;fillColor=#ffe6cc;strokeColor=#d79b00;" vertex="1" parent="1">
          <mxGeometry x="210" y="-20" width="80" height="40" as="geometry" />
        </mxCell>
        <mxCell id="LYyuxKMacIJ7PNofsc4J-5" value="&lt;span style=&quot;font-size: 15px&quot;&gt;style&lt;/span&gt;" style="rounded=0;whiteSpace=wrap;html=1;fillColor=#d5e8d4;strokeColor=#82b366;" vertex="1" parent="1">
          <mxGeometry x="310" y="-20" width="80" height="40" as="geometry" />
        </mxCell>
        <mxCell id="LYyuxKMacIJ7PNofsc4J-6" value="&lt;span style=&quot;font-size: 15px&quot;&gt;utils&lt;/span&gt;" style="rounded=0;whiteSpace=wrap;html=1;fillColor=#e1d5e7;strokeColor=#9673a6;" vertex="1" parent="1">
          <mxGeometry x="413.5" y="-20" width="80" height="40" as="geometry" />
        </mxCell>
        <mxCell id="LYyuxKMacIJ7PNofsc4J-7" value="&lt;span style=&quot;font-size: 15px&quot;&gt;ui&lt;/span&gt;" style="rounded=0;whiteSpace=wrap;html=1;fillColor=#b1ddf0;strokeColor=#10739e;" vertex="1" parent="1">
          <mxGeometry x="520" y="-20" width="80" height="40" as="geometry" />
        </mxCell>
        <mxCell id="LYyuxKMacIJ7PNofsc4J-11" value="一个部署包" style="ellipse;whiteSpace=wrap;html=1;aspect=fixed;fillColor=#e1d5e7;strokeColor=#9673a6;" vertex="1" parent="1">
          <mxGeometry x="345" y="690" width="80" height="80" as="geometry" />
        </mxCell>
      </root>
    </mxGraphModel>
  </diagram>
</mxfile>
